<svg>
    <symbol id="home-icon" viewBox="0 0 65 65" fill="none" xmlns="http://www.w3.org/2000/svg">
        <path d="M18.1458 18.6875L13.2708 22.6146C11.375 24.1042 10.1562 26.5417 10.1562 28.9792V53.4896C10.1562 54.9792 11.375 56.1979 12.8646 56.1979H39.9479"
              stroke-width="3" stroke-miterlimit="10" stroke-linecap="round" stroke-linejoin="round"/>
        <path d="M47.3959 56.1979H52.1355C53.625 56.1979 54.8438 54.9792 54.8438 53.4896V28.9792C54.8438 26.5417 53.7605 24.1042 51.7292 22.6146L33.3125 8.125C32.7709 7.71875 32.0938 7.71875 31.6875 8.125L25.4584 13"
              stroke-width="3" stroke-miterlimit="10" stroke-linecap="round" stroke-linejoin="round"/>
        <path d="M25.0521 48.3437V37.2395C25.0521 36.427 25.5938 35.8854 26.4063 35.8854H38.4584C39.2709 35.8854 39.8125 36.427 39.8125 37.2395V56.1979"
              stroke-width="3" stroke-miterlimit="10" stroke-linecap="round" stroke-linejoin="round"/>
    </symbol>

    <symbol id="account-icon" viewBox="0 0 60 60" xmlns="http://www.w3.org/2000/svg" stroke="none">
        <g clip-path="url(#clip0_14_179)">
            <path d="M60 29.97C60 13.425 46.56 0 30 0C13.44 0 0 13.425 0 29.97C0 39.0825 4.14 47.295 10.62 52.8075C10.68 52.8675 10.74 52.8675 10.74 52.9275C11.28 53.3475 11.82 53.7675 12.42 54.1875C12.72 54.3675 12.96 54.6037 13.26 54.8437C18.2178 58.2051 24.0702 60.0013 30.06 60C36.0498 60.0013 41.9022 58.2051 46.86 54.8437C47.16 54.6637 47.4 54.4275 47.7 54.2437C48.24 53.8275 48.84 53.4075 49.38 52.9875C49.44 52.9275 49.5 52.9275 49.5 52.8675C55.86 47.2912 60 39.0825 60 29.97ZM30 56.2237C24.36 56.2237 19.2 54.4237 14.94 51.4275C15 50.9475 15.12 50.4712 15.24 49.9912C15.5975 48.6904 16.1219 47.4413 16.8 46.275C17.46 45.135 18.24 44.115 19.2 43.215C20.1 42.315 21.18 41.4787 22.26 40.8187C23.4 40.1587 24.6 39.6787 25.92 39.3187C27.2503 38.9602 28.6223 38.7799 30 38.7825C34.0899 38.7535 38.0296 40.3224 40.98 43.155C42.36 44.535 43.44 46.155 44.22 48.0112C44.64 49.0912 44.94 50.2312 45.12 51.4275C40.6919 54.5406 35.4129 56.2152 30 56.2237ZM20.82 28.4737C20.2913 27.2633 20.0255 25.9545 20.04 24.6337C20.04 23.3175 20.28 21.9975 20.82 20.7975C21.36 19.5975 22.08 18.5212 22.98 17.6212C23.88 16.7212 24.96 16.005 26.16 15.465C27.36 14.925 28.68 14.685 30 14.685C31.38 14.685 32.64 14.925 33.84 15.465C35.04 16.005 36.12 16.725 37.02 17.6212C37.92 18.5212 38.64 19.6012 39.18 20.7975C39.72 21.9975 39.96 23.3175 39.96 24.6337C39.96 26.0137 39.72 27.2737 39.18 28.47C38.6589 29.6522 37.9269 30.7298 37.02 31.65C36.0995 32.5556 35.022 33.2862 33.84 33.8062C31.3606 34.8252 28.5794 34.8252 26.1 33.8062C24.918 33.2862 23.8405 32.5556 22.92 31.65C22.0118 30.7432 21.2973 29.6651 20.82 28.4737ZM48.66 48.3712C48.66 48.2512 48.6 48.1912 48.6 48.0712C48.0099 46.1941 47.1401 44.4166 46.02 42.7987C44.8988 41.1689 43.521 39.7315 41.94 38.5425C40.7326 37.6342 39.4238 36.869 38.04 36.2625C38.6696 35.8472 39.2529 35.3657 39.78 34.8262C40.6745 33.9431 41.4601 32.9561 42.12 31.8862C43.4488 29.703 44.1351 27.1893 44.1 24.6337C44.1186 22.7419 43.7511 20.8662 43.02 19.1212C42.2982 17.4399 41.2593 15.9133 39.96 14.625C38.6627 13.3501 37.1358 12.3322 35.46 11.625C33.7121 10.8952 31.834 10.529 29.94 10.5487C28.0458 10.5302 26.1676 10.8977 24.42 11.6287C22.7297 12.3345 21.1992 13.3739 19.92 14.685C18.6452 15.9809 17.6272 17.5066 16.92 19.1812C16.1889 20.9262 15.8214 22.8019 15.84 24.6937C15.84 26.0137 16.02 27.2737 16.38 28.47C16.74 29.73 17.22 30.87 17.88 31.9462C18.48 33.0262 19.32 33.9862 20.22 34.8862C20.76 35.4263 21.36 35.9025 22.02 36.3225C20.6319 36.9452 19.3227 37.7307 18.12 38.6625C16.56 39.8625 15.18 41.2987 14.04 42.8587C12.9085 44.4699 12.0378 46.2492 11.46 48.1312C11.4 48.2512 11.4 48.3712 11.4 48.4312C6.66 43.635 3.72 37.1625 3.72 29.97C3.72 15.525 15.54 3.71625 30 3.71625C44.46 3.71625 56.28 15.525 56.28 29.97C56.2721 36.8698 53.5324 43.4858 48.66 48.3712Z"/>
        </g>
        <defs>
            <clipPath id="clip0_14_179">
                <rect width="60" height="60"/>
            </clipPath>
        </defs>
    </symbol>

    <symbol id="my-book-icon" viewBox="0 0 60 60" xmlns="http://www.w3.org/2000/svg" stroke="none">
        <path d="M59.6918 43.8217C60.0234 43.4453 60.2117 41.8256 58.7329 41.7023H9.14951C4.10461 41.7023 0 45.8065 0 50.8519C0 55.8959 4.10461 59.9999 9.14951 59.9999H58.7329C60.4816 59.8028 60.0184 58.241 59.6793 57.8669C55.4112 53.1495 55.4161 48.6876 59.6918 43.8217ZM56.1007 57.4466H9.14951C5.51241 57.4466 2.55355 54.4883 2.55355 50.8519C2.55355 47.2153 5.51241 44.2556 9.14951 44.2556H56.1356C53.1793 48.6864 53.1669 53.107 56.1007 57.4466Z"/>
        <path d="M1.2671 39.1488H50.8504C55.8953 39.1488 60 35.0445 60 30.0005C60 24.9553 55.8954 20.851 50.8504 20.851H23.1121V18.2978H58.7329C60.4816 18.1007 60.0184 16.5388 59.6793 16.1647C55.4112 11.4473 55.4162 6.98535 59.6918 2.11959C60.0234 1.74318 60.2117 0.123184 58.7329 0H9.14951C4.10461 0.000122449 0 4.10449 0 9.14963C0 14.1938 4.10461 18.2979 9.14951 18.2979H10.7805V20.8511H1.2671C-0.211714 20.9743 -0.0233878 22.594 0.308204 22.9706C4.58388 27.8364 4.58878 32.2984 0.320694 37.0158C-0.0183674 37.3898 -0.481592 38.9516 1.2671 39.1488ZM9.14951 15.7446C5.51241 15.7446 2.55355 12.7862 2.55355 9.14963C2.55355 5.51314 5.51241 2.55355 9.14951 2.55355H56.1356C53.1793 6.98424 53.1669 11.4049 56.1007 15.7447H23.1121V9.14902C23.1121 8.44347 22.541 7.87237 21.8353 7.87237H12.0573C11.3515 7.87237 10.7805 8.44347 10.7805 9.14902V15.7446H9.14951ZM20.5586 10.4257V26.3783L17.7343 24.1654C17.5024 23.9846 17.2243 23.8937 16.9463 23.8937C16.6682 23.8937 16.3902 23.9846 16.1582 24.1654L13.3341 26.3783V10.4257H20.5586ZM10.7805 23.4043V29.0001C10.7066 30.1112 11.5517 31.1991 12.8453 30.0049L16.9463 26.7922L21.0473 30.0049C22.3908 31.0936 23.2149 30.0689 23.1121 29.0001V23.4043H50.8504C54.4875 23.4043 57.4463 26.364 57.4463 30.0005C57.4463 33.637 54.4875 36.5955 50.8504 36.5955H3.89927C6.83327 32.2558 6.82065 27.835 3.86437 23.4042H10.7805V23.4043Z"/>
    </symbol>

    <symbol id="search-icon" viewBox="0 0 60 60" xmlns="http://www.w3.org/2000/svg" stroke="none">
        <g clip-path="url(#clip0_14_162)">
            <path fill-rule="evenodd" clip-rule="evenodd"
                  d="M25.244 45.8581C13.4472 45.8581 3.88415 36.4615 3.88415 24.8516C3.88415 13.2417 13.4472 3.82628 25.244 3.82628C37.0408 3.82628 46.6058 13.2417 46.6058 24.8516C46.6058 36.4615 37.0408 45.8581 25.244 45.8581ZM59.4303 56.7366L43.9407 41.488C47.9955 37.0804 50.4881 31.2661 50.4881 24.8516C50.4881 11.1222 39.1864 0 25.244 0C11.3017 0 0 11.1222 0 24.8516C0 38.5621 11.3017 49.6843 25.244 49.6843C31.2681 49.6843 36.7933 47.6025 41.1331 44.1327L56.6846 59.4373C57.4442 60.1876 58.6726 60.1876 59.4303 59.4373C60.1899 58.7058 60.1899 57.4868 59.4303 56.7366Z"/>
        </g>
        <defs>
            <clipPath id="clip0_14_162">
                <rect/>
            </clipPath>
        </defs>
    </symbol>

    <symbol id="star-icon" viewBox="0 0 65 65" fill="none" xmlns="http://www.w3.org/2000/svg">
        <path d="M29.521 5.24148C30.3064 3.39375 30.6993 2.46988 31.2462 2.18538C31.7212 1.93821 32.2789 1.93821 32.7539 2.18538C33.3008 2.46988 33.6937 3.39375 34.4791 5.24148L40.7352 19.9589C40.9676 20.5051 41.0836 20.7782 41.2634 20.9874C41.4222 21.1725 41.6166 21.3205 41.8334 21.4218C42.0787 21.5364 42.3623 21.5677 42.9296 21.6305L58.2112 23.3218C60.1298 23.5341 61.0889 23.6403 61.516 24.0977C61.8868 24.4951 62.0592 25.0515 61.9818 25.6016C61.8929 26.2349 61.1764 26.9119 59.7433 28.2662L48.328 39.0535C47.9046 39.4537 47.6925 39.654 47.5585 39.8977C47.4398 40.1137 47.3655 40.3531 47.3407 40.6007C47.3126 40.8807 47.3716 41.1731 47.49 41.7583L50.6784 57.5209C51.0788 59.4999 51.2789 60.4893 50.996 61.0564C50.75 61.5495 50.2988 61.8931 49.776 61.986C49.1741 62.0927 48.3385 61.5875 46.6673 60.5768L33.3561 52.526C32.8621 52.2272 32.6151 52.0781 32.3525 52.0194C32.1201 51.9678 31.8799 51.9678 31.6475 52.0194C31.3849 52.0781 31.138 52.2272 30.644 52.526L17.3329 60.5768C15.6617 61.5875 14.8261 62.0927 14.2242 61.986C13.7014 61.8931 13.25 61.5495 13.0042 61.0564C12.7213 60.4893 12.9215 59.4999 13.3218 57.5209L16.5101 41.7583C16.6284 41.1731 16.6876 40.8807 16.6595 40.6007C16.6346 40.3531 16.5604 40.1137 16.4417 39.8977C16.3075 39.654 16.0957 39.4537 15.672 39.0535L4.25693 28.2662C2.82382 26.9119 2.10726 26.2349 2.01816 25.6016C1.94081 25.0515 2.11319 24.4951 2.48415 24.0977C2.91122 23.6403 3.8705 23.5341 5.78906 23.3218L21.0707 21.6305C21.6379 21.5677 21.9214 21.5364 22.1667 21.4218C22.3836 21.3205 22.5779 21.1725 22.7369 20.9874C22.9165 20.7782 23.0326 20.5051 23.2648 19.9589L29.521 5.24148Z"
              stroke-width="3" stroke-linecap="round" stroke-linejoin="round"/>
    </symbol>

    <symbol id="settings-icon" viewBox="0 0 60 60" xmlns="http://www.w3.org/2000/svg" stroke="none">
        <path fill-rule="evenodd" clip-rule="evenodd"
              d="M30 20.625C24.8223 20.625 20.625 24.8223 20.625 30C20.625 35.1777 24.8223 39.375 30 39.375C35.1777 39.375 39.375 35.1777 39.375 30C39.375 24.8223 35.1777 20.625 30 20.625ZM24.375 30C24.375 26.8935 26.8935 24.375 30 24.375C33.1065 24.375 35.625 26.8935 35.625 30C35.625 33.1065 33.1065 35.625 30 35.625C26.8935 35.625 24.375 33.1065 24.375 30Z"/>
        <path fill-rule="evenodd" clip-rule="evenodd"
              d="M29.9368 3.125C28.8258 3.12498 27.898 3.12498 27.1365 3.17693C26.3438 3.23103 25.595 3.34763 24.869 3.64833C23.1845 4.3461 21.8461 5.68448 21.1483 7.36905C20.7851 8.24605 20.6867 9.1703 20.6491 10.1749C20.6189 10.9825 20.2114 11.6563 19.6099 12.0035C19.0084 12.3508 18.2211 12.3668 17.5067 11.9892C16.6179 11.5194 15.7682 11.1425 14.8271 11.0186C13.0193 10.7806 11.1911 11.2705 9.74448 12.3805C9.12108 12.8588 8.64568 13.449 8.20248 14.1085C7.7767 14.742 7.31293 15.5454 6.75735 16.5077L6.69423 16.617C6.13863 17.5793 5.67483 18.3826 5.33905 19.0681C4.98953 19.7817 4.7161 20.4885 4.61353 21.2675C4.37553 23.0753 4.86543 24.9035 5.9754 26.3502C6.5532 27.103 7.30433 27.6505 8.15543 28.1852C8.83988 28.6152 9.2197 29.3052 9.21965 30C9.21963 30.6945 8.8398 31.3845 8.15543 31.8145C7.30423 32.3492 6.55303 32.8967 5.97518 33.6497C4.86518 35.0962 4.3753 36.9245 4.61328 38.7322C4.71585 39.5112 4.98928 40.2182 5.3388 40.9317C5.67458 41.6172 6.13838 42.4205 6.69395 43.3827L6.7571 43.4922C7.31268 44.4545 7.77645 45.2577 8.20223 45.8912C8.64543 46.5507 9.12083 47.141 9.74423 47.6192C11.1908 48.7292 13.0191 49.2192 14.8268 48.9812C15.7679 48.8572 16.6175 48.4805 17.5063 48.0107C18.2208 47.633 19.0082 47.649 19.6098 47.9965C20.2113 48.3437 20.6189 49.0175 20.6491 49.8252C20.6867 50.8297 20.7851 51.754 21.1483 52.631C21.8461 54.3155 23.1845 55.654 24.869 56.3517C25.595 56.6525 26.3438 56.769 27.1365 56.823C27.898 56.875 28.8258 56.875 29.9368 56.875H30.063C31.1742 56.875 32.1017 56.875 32.8635 56.823C33.6562 56.769 34.405 56.6525 35.131 56.3517C36.8155 55.654 38.154 54.3155 38.8517 52.631C39.215 51.754 39.3132 50.8297 39.3507 49.825C39.381 49.0175 39.7885 48.3437 40.39 47.9962C40.9915 47.649 41.779 47.633 42.4935 48.0105C43.3822 48.4802 44.2318 48.8572 45.173 48.981C46.9808 49.219 48.809 48.7292 50.2555 47.6192C50.879 47.1407 51.3542 46.5507 51.7975 45.8912C52.2233 45.2577 52.687 44.4545 53.2425 43.4922L53.3058 43.3827C53.8613 42.4205 54.3253 41.617 54.661 40.9315C55.0105 40.218 55.2837 39.5112 55.3865 38.7322C55.6245 36.9242 55.1345 35.096 54.0245 33.6495C53.4468 32.8965 52.6955 32.3492 51.8445 31.8145C51.16 31.3845 50.7803 30.6945 50.7803 29.9997C50.7803 29.3052 51.16 28.6155 51.8442 28.1855C52.6957 27.6507 53.447 27.1035 54.0247 26.3502C55.1348 24.9037 55.6247 23.0755 55.3867 21.2677C55.284 20.4886 55.0107 19.7818 54.6613 19.0682C54.3255 18.3828 53.8617 17.5796 53.306 16.6174L53.243 16.5079C52.6872 15.5456 52.2235 14.7422 51.7978 14.1087C51.3545 13.4492 50.8793 12.859 50.2558 12.3806C48.8093 11.2707 46.981 10.7807 45.173 11.0187C44.232 11.1426 43.3825 11.5196 42.4937 11.9893C41.7792 12.367 40.9917 12.3509 40.3902 12.0036C39.7887 11.6563 39.381 10.9824 39.3507 10.1748C39.3132 9.1702 39.215 8.246 38.8517 7.36905C38.154 5.68448 36.8155 4.3461 35.131 3.64833C34.405 3.34763 33.6562 3.23103 32.8635 3.17693C32.1017 3.12498 31.1742 3.12498 30.063 3.125H29.9368ZM26.304 7.11288C26.497 7.03298 26.79 6.9593 27.3918 6.91823C28.0105 6.87603 28.8095 6.875 30 6.875C31.1905 6.875 31.9895 6.87603 32.608 6.91823C33.21 6.9593 33.503 7.03298 33.6957 7.11288C34.4615 7.43005 35.07 8.0384 35.387 8.80413C35.4873 9.04565 35.57 9.42218 35.6035 10.3149C35.6775 12.2959 36.7 14.2032 38.5153 15.2512C40.3302 16.2992 42.4935 16.231 44.246 15.3047C45.0358 14.8872 45.4035 14.7708 45.6625 14.7367C46.4842 14.6285 47.3153 14.8512 47.9728 15.3557C48.1385 15.4828 48.3488 15.6997 48.6852 16.2004C49.0312 16.7151 49.4315 17.4065 50.0268 18.4375C50.622 19.4685 51.0208 20.1609 51.2935 20.7178C51.5588 21.2596 51.6415 21.5502 51.6688 21.7572C51.777 22.5789 51.5543 23.4099 51.0498 24.0674C50.8905 24.2749 50.606 24.535 49.8492 25.0102C48.171 26.065 47.0305 27.904 47.0303 29.9997C47.0303 32.0957 48.1707 33.935 49.8492 34.9897C50.6057 35.465 50.8903 35.725 51.0495 35.9325C51.554 36.59 51.7768 37.421 51.6685 38.2427C51.6413 38.4497 51.5585 38.7402 51.2933 39.282C51.0205 39.8387 50.6217 40.5312 50.0265 41.5622C49.4312 42.5932 49.031 43.2847 48.685 43.7995C48.3485 44.3 48.1382 44.517 47.9725 44.644C47.315 45.1487 46.484 45.3712 45.6623 45.2632C45.4033 45.229 45.0355 45.1125 44.2457 44.6952C42.4932 43.7687 40.33 43.7007 38.5147 44.7487C36.7 45.7967 35.6775 47.704 35.6035 49.685C35.57 50.5777 35.4873 50.9542 35.387 51.196C35.07 51.9615 34.4615 52.57 33.6957 52.8872C33.503 52.967 33.21 53.0407 32.608 53.0817C31.9895 53.124 31.1905 53.125 30 53.125C28.8095 53.125 28.0105 53.124 27.3918 53.0817C26.79 53.0407 26.497 52.967 26.304 52.8872C25.5385 52.57 24.93 51.9615 24.6129 51.196C24.5128 50.9542 24.4299 50.5777 24.3965 49.685C24.3224 47.7042 23.2999 45.7967 21.4848 44.7487C19.6696 43.7007 17.5066 43.769 15.754 44.6952C14.9641 45.1127 14.5966 45.2292 14.3374 45.2632C13.5157 45.3715 12.6846 45.1487 12.0271 44.6442C11.8615 44.5172 11.6511 44.3002 11.3147 43.7995C10.9688 43.285 10.5684 42.5935 9.97315 41.5625C9.37788 40.5315 8.97928 39.839 8.7065 39.2822C8.44115 38.7405 8.35845 38.4497 8.3312 38.2427C8.22303 37.421 8.4457 36.59 8.95025 35.9325C9.1094 35.7252 9.39403 35.465 10.1505 34.9897C11.829 33.9352 12.9696 32.096 12.9697 30.0002C12.9698 27.904 11.8291 26.0647 10.1505 25.01C9.39423 24.5347 9.10963 24.2747 8.95048 24.0673C8.44595 23.4097 8.22328 22.5787 8.33145 21.757C8.3587 21.55 8.4414 21.2594 8.70675 20.7177C8.97953 20.1608 9.37813 19.4683 9.97338 18.4373C10.5687 17.4063 10.969 16.7149 11.3149 16.2002C11.6514 15.6996 11.8617 15.4826 12.0273 15.3555C12.6849 14.851 13.5159 14.6283 14.3376 14.7365C14.5968 14.7706 14.9644 14.8871 15.7543 15.3046C17.5068 16.2309 19.6698 16.2991 21.4849 15.2511C23.3 14.2032 24.3224 12.2959 24.3965 10.3151C24.4299 9.42223 24.5128 9.04568 24.6129 8.80413C24.93 8.0384 25.5385 7.43005 26.304 7.11288Z"/>
    </symbol>

    <symbol id="border-title" viewBox="0 0 364 56" xmlns="http://www.w3.org/2000/svg">
        <path d="M0 1.99976H360L335.5 27.9998L360 53.9998H0" stroke-width="3"/>
    </symbol>

    <symbol id="change-sidebar-icon" viewBox="0 0 256 256" xmlns="http://www.w3.org/2000/svg">
        <path d="M232.53955,184.42529c-.019.01953-.03467.04053-.0542.06006l-32,32a12.0001,12.0001,0,0,1-16.9707-16.9707L195.0293,188H32a12,12,0,0,1,0-24H195.0293l-11.51465-11.51465a12.0001,12.0001,0,0,1,16.9707-16.9707l32,32c.01953.01953.03516.04053.0542.06006.2583.26123.50586.5332.73926.81738.12109.14746.22656.30273.33935.4541.12061.16211.2461.31983.35889.48828.11914.17823.22315.3628.332.54639.09082.15283.1875.30225.272.46.09864.18506.18311.375.27149.56445.07861.166.16162.32959.23242.5.07617.18409.1377.37159.2041.55811.06543.1831.13574.36328.19239.5498.05712.18848.09912.38037.14648.5708.04736.189.10059.37549.13916.56836.04395.22071.07031.44385.10156.66651.02344.165.05518.32763.07129.49463a12.042,12.042,0,0,1,0,2.373c-.01611.167-.04785.32959-.07129.49463-.03125.22266-.05761.4458-.10156.66651-.03857.19287-.0918.37939-.13916.56836-.04736.19043-.08936.38232-.14648.5708-.05665.18652-.127.3667-.19239.5498-.0664.18652-.12793.374-.2041.55811-.0708.17041-.15381.334-.23242.5-.08838.18945-.17285.37939-.27149.56445-.08447.15771-.18115.30713-.272.46-.10888.18359-.21289.36816-.332.54639-.11279.16845-.23828.32617-.35889.48828-.11279.15137-.21826.30664-.33935.4541C233.04541,183.89209,232.79785,184.16406,232.53955,184.42529ZM22.38184,72.84619c-.12061.16211-.2461.31983-.35889.48828-.11914.17823-.22315.3628-.332.54639-.09082.15283-.1875.30225-.272.46-.09913.18555-.1836.37647-.27247.56641-.07812.16552-.16064.32812-.23095.49756-.07666.18457-.13867.373-.20508.56054-.06543.18213-.13525.36182-.1919.54785-.05712.18848-.09912.38037-.14648.5708-.04736.189-.10059.37549-.13916.56836-.04395.22071-.07031.44385-.10156.66651-.02344.165-.05518.32763-.07129.49463a12.042,12.042,0,0,0,0,2.373c.01611.167.04785.32959.07129.49463.03125.22266.05761.4458.10156.66651.03857.19287.0918.37939.13916.56836.04736.19043.08936.38232.14648.5708.05665.186.12647.36572.1919.54785.06641.1875.12842.376.20508.56054.07031.16944.15283.332.231.49756.08887.18994.17334.38086.27247.56641.08447.15771.18115.30713.272.46.10888.18359.21289.36816.332.54639.11279.16845.23828.32617.35889.48828.11279.15137.21826.30664.33935.4541.2334.28418.481.55615.73926.81738.019.01953.03467.04053.0542.06006l32,32a12.0001,12.0001,0,0,0,16.9707-16.9707L60.9707,92H224a12,12,0,0,0,0-24H60.9707L72.48535,56.48535a12.0001,12.0001,0,0,0-16.9707-16.9707l-32,32c-.01953.01953-.03516.04053-.0542.06006-.2583.26123-.50586.5332-.73926.81738C22.6001,72.53955,22.49463,72.69482,22.38184,72.84619Z"/>
    </symbol>

    <symbol id="filters-icon" viewBox="0 0 24 26" fill="none" xmlns="http://www.w3.org/2000/svg">
        <path d="M2 4.44444H9.5M9.5 4.44444C9.5 5.79447 10.6193 6.88889 12 6.88889C13.3808 6.88889 14.5 5.79447 14.5 4.44444M9.5 4.44444C9.5 3.09441 10.6193 2 12 2C13.3808 2 14.5 3.09441 14.5 4.44444M14.5 4.44444H22M2 13H17M17 13C17 14.3501 18.1193 15.4444 19.5 15.4444C20.8808 15.4444 22 14.3501 22 13C22 11.6499 20.8808 10.5556 19.5 10.5556C18.1193 10.5556 17 11.6499 17 13ZM7 21.5556H22M7 21.5556C7 20.2055 5.88071 19.1111 4.5 19.1111C3.11929 19.1111 2 20.2055 2 21.5556C2 22.9056 3.11929 24 4.5 24C5.88071 24 7 22.9056 7 21.5556Z" stroke-width="3" stroke-linecap="round"/>
    </symbol>

    <symbol id="theme-icon" viewBox="0 0 24 24" xmlns="http://www.w3.org/2000/svg">
        <path d="m7.5 2c-1.79 1.15-3 3.18-3 5.5s1.21 4.35 3.03 5.5c-3.07 0-5.53-2.46-5.53-5.5a5.5 5.5 0 0 1 5.5-5.5m11.57 1.5 1.43 1.43-15.57 15.57-1.43-1.43zm-6.18 2.43-1.48-.93-1.44 1 .42-1.7-1.39-1.06 1.75-.12.58-1.65.67 1.63 1.73.03-1.35 1.13zm-3.3 3.61-1.16-.73-1.12.78.34-1.32-1.09-.83 1.36-.09.45-1.29.51 1.27 1.36.03-1.05.87zm9.41 3.96a5.5 5.5 0 0 1 -5.5 5.5c-1.22 0-2.35-.4-3.26-1.07l7.69-7.69c.67.91 1.07 2.04 1.07 3.26m-4.4 6.58 2.77-1.15-.24 3.35zm4.33-2.7 1.15-2.77 2.2 2.54zm1.15-4.96-1.14-2.78 3.34.24zm-10.45 6.51 2.77 1.15-2.53 2.19z"/>
    </symbol>

    <symbol id="border-title-mobile" viewBox="0 0 340 60" xmlns="http://www.w3.org/2000/svg">
        <path d="M1.68041 8.37863C-1.25935 5.17162 1.01565 0 5.36618 0H334.071C338.505 0 340.745 5.34394 337.636 8.5057L319.947 26.4943C318.034 28.4399 318.034 31.5601 319.947 33.5057L337.636 51.4943C340.745 54.6561 338.505 60 334.071 60H5.36618C1.01565 60 -1.25935 54.8284 1.68041 51.6214L18.4029 33.3786C20.1552 31.467 20.1552 28.533 18.4029 26.6214L1.68041 8.37863Z"/>
    </symbol>

    <symbol id="menu-icon" viewBox="0 0 40 21" xmlns="http://www.w3.org/2000/svg">
        <rect width="40" height="5" rx="2.5"/>
        <rect y="8" width="40" height="5" rx="2.5"/>
        <rect y="16" width="40" height="5" rx="2.5"/>
    </symbol>

    <symbol id="heart-icon" viewBox="0 0 24 20" xmlns="http://www.w3.org/2000/svg"><path d="M12 21.593c-5.63-5.539-11-10.297-11-14.402 0-3.791 3.068-5.191 5.281-5.191 1.312 0 4.151.501 5.719 4.457 1.59-3.968 4.464-4.447 5.726-4.447 2.54 0 5.274 1.621 5.274 5.181 0 4.069-5.136 8.625-11 14.402m5.726-20.583c-2.203 0-4.446 1.042-5.726 3.238-1.285-2.206-3.522-3.248-5.719-3.248-3.183 0-6.281 2.187-6.281 6.191 0 4.661 5.571 9.429 12 15.809 6.43-6.38 12-11.148 12-15.809 0-4.011-3.095-6.181-6.274-6.181"/></symbol>
</svg>
